<mxfile host="app.diagrams.net" agent="Mozilla/5.0 (Windows NT 10.0; Win64; x64) AppleWebKit/537.36 (KHTML, like Gecko) Chrome/123.0.0.0 Safari/537.36 OPR/109.0.0.0" version="24.7.7" pages="2">
  <diagram name="DER" id="2YEWT8JmdDm5ds23QchY">
    <mxGraphModel grid="1" page="1" gridSize="10" guides="1" tooltips="1" connect="1" arrows="1" fold="1" pageScale="1" pageWidth="827" pageHeight="1169" math="0" shadow="0">
      <root>
        <mxCell id="0" />
        <mxCell id="1" parent="0" />
        <mxCell id="mz3XF2FVlqkhDc6d8bLx-1" value="cliente" style="shape=table;startSize=30;container=1;collapsible=1;childLayout=tableLayout;fixedRows=1;rowLines=0;fontStyle=1;align=center;resizeLast=1;html=1;" vertex="1" parent="1">
          <mxGeometry x="570" y="-990" width="180" height="170" as="geometry" />
        </mxCell>
        <mxCell id="mz3XF2FVlqkhDc6d8bLx-2" value="" style="shape=tableRow;horizontal=0;startSize=0;swimlaneHead=0;swimlaneBody=0;fillColor=none;collapsible=0;dropTarget=0;points=[[0,0.5],[1,0.5]];portConstraint=eastwest;top=0;left=0;right=0;bottom=1;" vertex="1" parent="mz3XF2FVlqkhDc6d8bLx-1">
          <mxGeometry y="30" width="180" height="30" as="geometry" />
        </mxCell>
        <mxCell id="mz3XF2FVlqkhDc6d8bLx-3" value="PK" style="shape=partialRectangle;connectable=0;fillColor=none;top=0;left=0;bottom=0;right=0;fontStyle=1;overflow=hidden;whiteSpace=wrap;html=1;" vertex="1" parent="mz3XF2FVlqkhDc6d8bLx-2">
          <mxGeometry width="30" height="30" as="geometry">
            <mxRectangle width="30" height="30" as="alternateBounds" />
          </mxGeometry>
        </mxCell>
        <mxCell id="mz3XF2FVlqkhDc6d8bLx-4" value="&lt;span style=&quot;font-weight: normal;&quot;&gt;&amp;nbsp; id&amp;nbsp; &amp;nbsp;&lt;i&gt;Unique Not null&amp;nbsp; &amp;nbsp;int&lt;/i&gt;&lt;/span&gt;" style="shape=partialRectangle;connectable=0;fillColor=none;top=0;left=0;bottom=0;right=0;align=left;spacingLeft=6;fontStyle=5;overflow=hidden;whiteSpace=wrap;html=1;" vertex="1" parent="mz3XF2FVlqkhDc6d8bLx-2">
          <mxGeometry x="30" width="150" height="30" as="geometry">
            <mxRectangle width="150" height="30" as="alternateBounds" />
          </mxGeometry>
        </mxCell>
        <mxCell id="mz3XF2FVlqkhDc6d8bLx-5" value="" style="shape=tableRow;horizontal=0;startSize=0;swimlaneHead=0;swimlaneBody=0;fillColor=none;collapsible=0;dropTarget=0;points=[[0,0.5],[1,0.5]];portConstraint=eastwest;top=0;left=0;right=0;bottom=0;" vertex="1" parent="mz3XF2FVlqkhDc6d8bLx-1">
          <mxGeometry y="60" width="180" height="30" as="geometry" />
        </mxCell>
        <mxCell id="mz3XF2FVlqkhDc6d8bLx-6" value="" style="shape=partialRectangle;connectable=0;fillColor=none;top=0;left=0;bottom=0;right=0;editable=1;overflow=hidden;whiteSpace=wrap;html=1;" vertex="1" parent="mz3XF2FVlqkhDc6d8bLx-5">
          <mxGeometry width="30" height="30" as="geometry">
            <mxRectangle width="30" height="30" as="alternateBounds" />
          </mxGeometry>
        </mxCell>
        <mxCell id="mz3XF2FVlqkhDc6d8bLx-7" value="nombre&amp;nbsp; &amp;nbsp; &amp;nbsp; &amp;nbsp; &amp;nbsp; &amp;nbsp; &amp;nbsp;varchar" style="shape=partialRectangle;connectable=0;fillColor=none;top=0;left=0;bottom=0;right=0;align=left;spacingLeft=6;overflow=hidden;whiteSpace=wrap;html=1;" vertex="1" parent="mz3XF2FVlqkhDc6d8bLx-5">
          <mxGeometry x="30" width="150" height="30" as="geometry">
            <mxRectangle width="150" height="30" as="alternateBounds" />
          </mxGeometry>
        </mxCell>
        <mxCell id="UyIufJHTst8PUv4BLB6f-72" value="" style="shape=tableRow;horizontal=0;startSize=0;swimlaneHead=0;swimlaneBody=0;fillColor=none;collapsible=0;dropTarget=0;points=[[0,0.5],[1,0.5]];portConstraint=eastwest;top=0;left=0;right=0;bottom=0;" vertex="1" parent="mz3XF2FVlqkhDc6d8bLx-1">
          <mxGeometry y="90" width="180" height="20" as="geometry" />
        </mxCell>
        <mxCell id="UyIufJHTst8PUv4BLB6f-73" value="" style="shape=partialRectangle;connectable=0;fillColor=none;top=0;left=0;bottom=0;right=0;editable=1;overflow=hidden;whiteSpace=wrap;html=1;" vertex="1" parent="UyIufJHTst8PUv4BLB6f-72">
          <mxGeometry width="30" height="20" as="geometry">
            <mxRectangle width="30" height="20" as="alternateBounds" />
          </mxGeometry>
        </mxCell>
        <mxCell id="UyIufJHTst8PUv4BLB6f-74" value="email&amp;nbsp; &amp;nbsp; &amp;nbsp;unique varchar" style="shape=partialRectangle;connectable=0;fillColor=none;top=0;left=0;bottom=0;right=0;align=left;spacingLeft=6;overflow=hidden;whiteSpace=wrap;html=1;" vertex="1" parent="UyIufJHTst8PUv4BLB6f-72">
          <mxGeometry x="30" width="150" height="20" as="geometry">
            <mxRectangle width="150" height="20" as="alternateBounds" />
          </mxGeometry>
        </mxCell>
        <mxCell id="UyIufJHTst8PUv4BLB6f-81" value="" style="shape=tableRow;horizontal=0;startSize=0;swimlaneHead=0;swimlaneBody=0;fillColor=none;collapsible=0;dropTarget=0;points=[[0,0.5],[1,0.5]];portConstraint=eastwest;top=0;left=0;right=0;bottom=0;" vertex="1" parent="mz3XF2FVlqkhDc6d8bLx-1">
          <mxGeometry y="110" width="180" height="30" as="geometry" />
        </mxCell>
        <mxCell id="UyIufJHTst8PUv4BLB6f-82" value="" style="shape=partialRectangle;connectable=0;fillColor=none;top=0;left=0;bottom=0;right=0;editable=1;overflow=hidden;whiteSpace=wrap;html=1;" vertex="1" parent="UyIufJHTst8PUv4BLB6f-81">
          <mxGeometry width="30" height="30" as="geometry">
            <mxRectangle width="30" height="30" as="alternateBounds" />
          </mxGeometry>
        </mxCell>
        <mxCell id="UyIufJHTst8PUv4BLB6f-83" value="telefono&amp;nbsp; &amp;nbsp; &amp;nbsp; &amp;nbsp; &amp;nbsp; &amp;nbsp; &amp;nbsp;varchar" style="shape=partialRectangle;connectable=0;fillColor=none;top=0;left=0;bottom=0;right=0;align=left;spacingLeft=6;overflow=hidden;whiteSpace=wrap;html=1;" vertex="1" parent="UyIufJHTst8PUv4BLB6f-81">
          <mxGeometry x="30" width="150" height="30" as="geometry">
            <mxRectangle width="150" height="30" as="alternateBounds" />
          </mxGeometry>
        </mxCell>
        <mxCell id="UyIufJHTst8PUv4BLB6f-97" value="" style="shape=tableRow;horizontal=0;startSize=0;swimlaneHead=0;swimlaneBody=0;fillColor=none;collapsible=0;dropTarget=0;points=[[0,0.5],[1,0.5]];portConstraint=eastwest;top=0;left=0;right=0;bottom=0;" vertex="1" parent="mz3XF2FVlqkhDc6d8bLx-1">
          <mxGeometry y="140" width="180" height="30" as="geometry" />
        </mxCell>
        <mxCell id="UyIufJHTst8PUv4BLB6f-98" value="" style="shape=partialRectangle;connectable=0;fillColor=none;top=0;left=0;bottom=0;right=0;editable=1;overflow=hidden;whiteSpace=wrap;html=1;" vertex="1" parent="UyIufJHTst8PUv4BLB6f-97">
          <mxGeometry width="30" height="30" as="geometry">
            <mxRectangle width="30" height="30" as="alternateBounds" />
          </mxGeometry>
        </mxCell>
        <mxCell id="UyIufJHTst8PUv4BLB6f-99" value="fecha_registro&amp;nbsp; timestamp&amp;nbsp;" style="shape=partialRectangle;connectable=0;fillColor=none;top=0;left=0;bottom=0;right=0;align=left;spacingLeft=6;overflow=hidden;whiteSpace=wrap;html=1;" vertex="1" parent="UyIufJHTst8PUv4BLB6f-97">
          <mxGeometry x="30" width="150" height="30" as="geometry">
            <mxRectangle width="150" height="30" as="alternateBounds" />
          </mxGeometry>
        </mxCell>
        <mxCell id="UyIufJHTst8PUv4BLB6f-1" value="servicio" style="shape=table;startSize=30;container=1;collapsible=1;childLayout=tableLayout;fixedRows=1;rowLines=0;fontStyle=1;align=center;resizeLast=1;html=1;" vertex="1" parent="1">
          <mxGeometry x="570" y="-740" width="180" height="180" as="geometry" />
        </mxCell>
        <mxCell id="UyIufJHTst8PUv4BLB6f-2" value="" style="shape=tableRow;horizontal=0;startSize=0;swimlaneHead=0;swimlaneBody=0;fillColor=none;collapsible=0;dropTarget=0;points=[[0,0.5],[1,0.5]];portConstraint=eastwest;top=0;left=0;right=0;bottom=1;" vertex="1" parent="UyIufJHTst8PUv4BLB6f-1">
          <mxGeometry y="30" width="180" height="30" as="geometry" />
        </mxCell>
        <mxCell id="UyIufJHTst8PUv4BLB6f-3" value="PK" style="shape=partialRectangle;connectable=0;fillColor=none;top=0;left=0;bottom=0;right=0;fontStyle=1;overflow=hidden;whiteSpace=wrap;html=1;" vertex="1" parent="UyIufJHTst8PUv4BLB6f-2">
          <mxGeometry width="30" height="30" as="geometry">
            <mxRectangle width="30" height="30" as="alternateBounds" />
          </mxGeometry>
        </mxCell>
        <mxCell id="UyIufJHTst8PUv4BLB6f-4" value="&lt;span style=&quot;font-weight: 400;&quot;&gt;&amp;nbsp; id&amp;nbsp; &amp;nbsp;&lt;/span&gt;&lt;i style=&quot;font-weight: 400;&quot;&gt;Unique Not null&amp;nbsp; &amp;nbsp;int&lt;/i&gt;" style="shape=partialRectangle;connectable=0;fillColor=none;top=0;left=0;bottom=0;right=0;align=left;spacingLeft=6;fontStyle=5;overflow=hidden;whiteSpace=wrap;html=1;" vertex="1" parent="UyIufJHTst8PUv4BLB6f-2">
          <mxGeometry x="30" width="150" height="30" as="geometry">
            <mxRectangle width="150" height="30" as="alternateBounds" />
          </mxGeometry>
        </mxCell>
        <mxCell id="UyIufJHTst8PUv4BLB6f-5" value="" style="shape=tableRow;horizontal=0;startSize=0;swimlaneHead=0;swimlaneBody=0;fillColor=none;collapsible=0;dropTarget=0;points=[[0,0.5],[1,0.5]];portConstraint=eastwest;top=0;left=0;right=0;bottom=0;" vertex="1" parent="UyIufJHTst8PUv4BLB6f-1">
          <mxGeometry y="60" width="180" height="30" as="geometry" />
        </mxCell>
        <mxCell id="UyIufJHTst8PUv4BLB6f-6" value="" style="shape=partialRectangle;connectable=0;fillColor=none;top=0;left=0;bottom=0;right=0;editable=1;overflow=hidden;whiteSpace=wrap;html=1;" vertex="1" parent="UyIufJHTst8PUv4BLB6f-5">
          <mxGeometry width="30" height="30" as="geometry">
            <mxRectangle width="30" height="30" as="alternateBounds" />
          </mxGeometry>
        </mxCell>
        <mxCell id="UyIufJHTst8PUv4BLB6f-7" value="nombre&amp;nbsp; &amp;nbsp; &amp;nbsp; &amp;nbsp; &amp;nbsp; &amp;nbsp; &amp;nbsp;varchar" style="shape=partialRectangle;connectable=0;fillColor=none;top=0;left=0;bottom=0;right=0;align=left;spacingLeft=6;overflow=hidden;whiteSpace=wrap;html=1;" vertex="1" parent="UyIufJHTst8PUv4BLB6f-5">
          <mxGeometry x="30" width="150" height="30" as="geometry">
            <mxRectangle width="150" height="30" as="alternateBounds" />
          </mxGeometry>
        </mxCell>
        <mxCell id="UyIufJHTst8PUv4BLB6f-8" value="" style="shape=tableRow;horizontal=0;startSize=0;swimlaneHead=0;swimlaneBody=0;fillColor=none;collapsible=0;dropTarget=0;points=[[0,0.5],[1,0.5]];portConstraint=eastwest;top=0;left=0;right=0;bottom=0;" vertex="1" parent="UyIufJHTst8PUv4BLB6f-1">
          <mxGeometry y="90" width="180" height="30" as="geometry" />
        </mxCell>
        <mxCell id="UyIufJHTst8PUv4BLB6f-9" value="" style="shape=partialRectangle;connectable=0;fillColor=none;top=0;left=0;bottom=0;right=0;editable=1;overflow=hidden;whiteSpace=wrap;html=1;" vertex="1" parent="UyIufJHTst8PUv4BLB6f-8">
          <mxGeometry width="30" height="30" as="geometry">
            <mxRectangle width="30" height="30" as="alternateBounds" />
          </mxGeometry>
        </mxCell>
        <mxCell id="UyIufJHTst8PUv4BLB6f-10" value="descripcion&amp;nbsp; &amp;nbsp; &amp;nbsp; &amp;nbsp;varchar" style="shape=partialRectangle;connectable=0;fillColor=none;top=0;left=0;bottom=0;right=0;align=left;spacingLeft=6;overflow=hidden;whiteSpace=wrap;html=1;" vertex="1" parent="UyIufJHTst8PUv4BLB6f-8">
          <mxGeometry x="30" width="150" height="30" as="geometry">
            <mxRectangle width="150" height="30" as="alternateBounds" />
          </mxGeometry>
        </mxCell>
        <mxCell id="UyIufJHTst8PUv4BLB6f-11" value="" style="shape=tableRow;horizontal=0;startSize=0;swimlaneHead=0;swimlaneBody=0;fillColor=none;collapsible=0;dropTarget=0;points=[[0,0.5],[1,0.5]];portConstraint=eastwest;top=0;left=0;right=0;bottom=0;" vertex="1" parent="UyIufJHTst8PUv4BLB6f-1">
          <mxGeometry y="120" width="180" height="30" as="geometry" />
        </mxCell>
        <mxCell id="UyIufJHTst8PUv4BLB6f-12" value="" style="shape=partialRectangle;connectable=0;fillColor=none;top=0;left=0;bottom=0;right=0;editable=1;overflow=hidden;whiteSpace=wrap;html=1;" vertex="1" parent="UyIufJHTst8PUv4BLB6f-11">
          <mxGeometry width="30" height="30" as="geometry">
            <mxRectangle width="30" height="30" as="alternateBounds" />
          </mxGeometry>
        </mxCell>
        <mxCell id="UyIufJHTst8PUv4BLB6f-13" value="duracion&amp;nbsp; &amp;nbsp; &amp;nbsp; &amp;nbsp; &amp;nbsp; &amp;nbsp; &amp;nbsp; &amp;nbsp; &amp;nbsp; &amp;nbsp;int" style="shape=partialRectangle;connectable=0;fillColor=none;top=0;left=0;bottom=0;right=0;align=left;spacingLeft=6;overflow=hidden;whiteSpace=wrap;html=1;" vertex="1" parent="UyIufJHTst8PUv4BLB6f-11">
          <mxGeometry x="30" width="150" height="30" as="geometry">
            <mxRectangle width="150" height="30" as="alternateBounds" />
          </mxGeometry>
        </mxCell>
        <mxCell id="UyIufJHTst8PUv4BLB6f-131" value="" style="shape=tableRow;horizontal=0;startSize=0;swimlaneHead=0;swimlaneBody=0;fillColor=none;collapsible=0;dropTarget=0;points=[[0,0.5],[1,0.5]];portConstraint=eastwest;top=0;left=0;right=0;bottom=0;" vertex="1" parent="UyIufJHTst8PUv4BLB6f-1">
          <mxGeometry y="150" width="180" height="30" as="geometry" />
        </mxCell>
        <mxCell id="UyIufJHTst8PUv4BLB6f-132" value="" style="shape=partialRectangle;connectable=0;fillColor=none;top=0;left=0;bottom=0;right=0;editable=1;overflow=hidden;whiteSpace=wrap;html=1;" vertex="1" parent="UyIufJHTst8PUv4BLB6f-131">
          <mxGeometry width="30" height="30" as="geometry">
            <mxRectangle width="30" height="30" as="alternateBounds" />
          </mxGeometry>
        </mxCell>
        <mxCell id="UyIufJHTst8PUv4BLB6f-133" value="precio&amp;nbsp; &amp;nbsp; &amp;nbsp; &amp;nbsp; &amp;nbsp; &amp;nbsp; &amp;nbsp; &amp;nbsp;numeric" style="shape=partialRectangle;connectable=0;fillColor=none;top=0;left=0;bottom=0;right=0;align=left;spacingLeft=6;overflow=hidden;whiteSpace=wrap;html=1;" vertex="1" parent="UyIufJHTst8PUv4BLB6f-131">
          <mxGeometry x="30" width="150" height="30" as="geometry">
            <mxRectangle width="150" height="30" as="alternateBounds" />
          </mxGeometry>
        </mxCell>
        <mxCell id="UyIufJHTst8PUv4BLB6f-14" value="citas" style="shape=table;startSize=30;container=1;collapsible=1;childLayout=tableLayout;fixedRows=1;rowLines=0;fontStyle=1;align=center;resizeLast=1;html=1;" vertex="1" parent="1">
          <mxGeometry x="324" y="-860" width="180" height="180" as="geometry" />
        </mxCell>
        <mxCell id="UyIufJHTst8PUv4BLB6f-15" value="" style="shape=tableRow;horizontal=0;startSize=0;swimlaneHead=0;swimlaneBody=0;fillColor=none;collapsible=0;dropTarget=0;points=[[0,0.5],[1,0.5]];portConstraint=eastwest;top=0;left=0;right=0;bottom=1;" vertex="1" parent="UyIufJHTst8PUv4BLB6f-14">
          <mxGeometry y="30" width="180" height="30" as="geometry" />
        </mxCell>
        <mxCell id="UyIufJHTst8PUv4BLB6f-16" value="PK" style="shape=partialRectangle;connectable=0;fillColor=none;top=0;left=0;bottom=0;right=0;fontStyle=1;overflow=hidden;whiteSpace=wrap;html=1;" vertex="1" parent="UyIufJHTst8PUv4BLB6f-15">
          <mxGeometry width="30" height="30" as="geometry">
            <mxRectangle width="30" height="30" as="alternateBounds" />
          </mxGeometry>
        </mxCell>
        <mxCell id="UyIufJHTst8PUv4BLB6f-17" value="&lt;span style=&quot;font-weight: 400;&quot;&gt;&amp;nbsp; id&amp;nbsp; &amp;nbsp;&lt;/span&gt;&lt;i style=&quot;font-weight: 400;&quot;&gt;Unique Not null&amp;nbsp; &amp;nbsp; int&lt;/i&gt;" style="shape=partialRectangle;connectable=0;fillColor=none;top=0;left=0;bottom=0;right=0;align=left;spacingLeft=6;fontStyle=5;overflow=hidden;whiteSpace=wrap;html=1;" vertex="1" parent="UyIufJHTst8PUv4BLB6f-15">
          <mxGeometry x="30" width="150" height="30" as="geometry">
            <mxRectangle width="150" height="30" as="alternateBounds" />
          </mxGeometry>
        </mxCell>
        <mxCell id="UyIufJHTst8PUv4BLB6f-125" value="" style="shape=tableRow;horizontal=0;startSize=0;swimlaneHead=0;swimlaneBody=0;fillColor=none;collapsible=0;dropTarget=0;points=[[0,0.5],[1,0.5]];portConstraint=eastwest;top=0;left=0;right=0;bottom=0;" vertex="1" parent="UyIufJHTst8PUv4BLB6f-14">
          <mxGeometry y="60" width="180" height="30" as="geometry" />
        </mxCell>
        <mxCell id="UyIufJHTst8PUv4BLB6f-126" value="FK" style="shape=partialRectangle;connectable=0;fillColor=none;top=0;left=0;bottom=0;right=0;fontStyle=0;overflow=hidden;whiteSpace=wrap;html=1;" vertex="1" parent="UyIufJHTst8PUv4BLB6f-125">
          <mxGeometry width="30" height="30" as="geometry">
            <mxRectangle width="30" height="30" as="alternateBounds" />
          </mxGeometry>
        </mxCell>
        <mxCell id="UyIufJHTst8PUv4BLB6f-127" value="cliente_id&amp;nbsp; &amp;nbsp; &amp;nbsp; &amp;nbsp; &amp;nbsp; &amp;nbsp; &amp;nbsp; &amp;nbsp; &amp;nbsp; &amp;nbsp; &amp;nbsp;int" style="shape=partialRectangle;connectable=0;fillColor=none;top=0;left=0;bottom=0;right=0;align=left;spacingLeft=6;fontStyle=0;overflow=hidden;whiteSpace=wrap;html=1;" vertex="1" parent="UyIufJHTst8PUv4BLB6f-125">
          <mxGeometry x="30" width="150" height="30" as="geometry">
            <mxRectangle width="150" height="30" as="alternateBounds" />
          </mxGeometry>
        </mxCell>
        <mxCell id="UyIufJHTst8PUv4BLB6f-128" value="" style="shape=tableRow;horizontal=0;startSize=0;swimlaneHead=0;swimlaneBody=0;fillColor=none;collapsible=0;dropTarget=0;points=[[0,0.5],[1,0.5]];portConstraint=eastwest;top=0;left=0;right=0;bottom=0;" vertex="1" parent="UyIufJHTst8PUv4BLB6f-14">
          <mxGeometry y="90" width="180" height="30" as="geometry" />
        </mxCell>
        <mxCell id="UyIufJHTst8PUv4BLB6f-129" value="FK" style="shape=partialRectangle;connectable=0;fillColor=none;top=0;left=0;bottom=0;right=0;fontStyle=0;overflow=hidden;whiteSpace=wrap;html=1;" vertex="1" parent="UyIufJHTst8PUv4BLB6f-128">
          <mxGeometry width="30" height="30" as="geometry">
            <mxRectangle width="30" height="30" as="alternateBounds" />
          </mxGeometry>
        </mxCell>
        <mxCell id="UyIufJHTst8PUv4BLB6f-130" value="servicio_id&amp;nbsp; &amp;nbsp; &amp;nbsp; &amp;nbsp; &amp;nbsp; &amp;nbsp; &amp;nbsp; &amp;nbsp; &amp;nbsp; &amp;nbsp;int" style="shape=partialRectangle;connectable=0;fillColor=none;top=0;left=0;bottom=0;right=0;align=left;spacingLeft=6;fontStyle=0;overflow=hidden;whiteSpace=wrap;html=1;" vertex="1" parent="UyIufJHTst8PUv4BLB6f-128">
          <mxGeometry x="30" width="150" height="30" as="geometry">
            <mxRectangle width="150" height="30" as="alternateBounds" />
          </mxGeometry>
        </mxCell>
        <mxCell id="UyIufJHTst8PUv4BLB6f-18" value="" style="shape=tableRow;horizontal=0;startSize=0;swimlaneHead=0;swimlaneBody=0;fillColor=none;collapsible=0;dropTarget=0;points=[[0,0.5],[1,0.5]];portConstraint=eastwest;top=0;left=0;right=0;bottom=0;" vertex="1" parent="UyIufJHTst8PUv4BLB6f-14">
          <mxGeometry y="120" width="180" height="30" as="geometry" />
        </mxCell>
        <mxCell id="UyIufJHTst8PUv4BLB6f-19" value="" style="shape=partialRectangle;connectable=0;fillColor=none;top=0;left=0;bottom=0;right=0;editable=1;overflow=hidden;whiteSpace=wrap;html=1;" vertex="1" parent="UyIufJHTst8PUv4BLB6f-18">
          <mxGeometry width="30" height="30" as="geometry">
            <mxRectangle width="30" height="30" as="alternateBounds" />
          </mxGeometry>
        </mxCell>
        <mxCell id="UyIufJHTst8PUv4BLB6f-20" value="fecha_hora&amp;nbsp; &amp;nbsp; &amp;nbsp; timestamp" style="shape=partialRectangle;connectable=0;fillColor=none;top=0;left=0;bottom=0;right=0;align=left;spacingLeft=6;overflow=hidden;whiteSpace=wrap;html=1;" vertex="1" parent="UyIufJHTst8PUv4BLB6f-18">
          <mxGeometry x="30" width="150" height="30" as="geometry">
            <mxRectangle width="150" height="30" as="alternateBounds" />
          </mxGeometry>
        </mxCell>
        <mxCell id="UyIufJHTst8PUv4BLB6f-21" value="" style="shape=tableRow;horizontal=0;startSize=0;swimlaneHead=0;swimlaneBody=0;fillColor=none;collapsible=0;dropTarget=0;points=[[0,0.5],[1,0.5]];portConstraint=eastwest;top=0;left=0;right=0;bottom=0;" vertex="1" parent="UyIufJHTst8PUv4BLB6f-14">
          <mxGeometry y="150" width="180" height="30" as="geometry" />
        </mxCell>
        <mxCell id="UyIufJHTst8PUv4BLB6f-22" value="" style="shape=partialRectangle;connectable=0;fillColor=none;top=0;left=0;bottom=0;right=0;editable=1;overflow=hidden;whiteSpace=wrap;html=1;" vertex="1" parent="UyIufJHTst8PUv4BLB6f-21">
          <mxGeometry width="30" height="30" as="geometry">
            <mxRectangle width="30" height="30" as="alternateBounds" />
          </mxGeometry>
        </mxCell>
        <mxCell id="UyIufJHTst8PUv4BLB6f-23" value="estado&amp;nbsp; &amp;nbsp; &amp;nbsp; &amp;nbsp; &amp;nbsp; &amp;nbsp; &amp;nbsp; &amp;nbsp; &amp;nbsp; varchar" style="shape=partialRectangle;connectable=0;fillColor=none;top=0;left=0;bottom=0;right=0;align=left;spacingLeft=6;overflow=hidden;whiteSpace=wrap;html=1;" vertex="1" parent="UyIufJHTst8PUv4BLB6f-21">
          <mxGeometry x="30" width="150" height="30" as="geometry">
            <mxRectangle width="150" height="30" as="alternateBounds" />
          </mxGeometry>
        </mxCell>
        <mxCell id="UyIufJHTst8PUv4BLB6f-27" value="estilista" style="shape=table;startSize=30;container=1;collapsible=1;childLayout=tableLayout;fixedRows=1;rowLines=0;fontStyle=1;align=center;resizeLast=1;html=1;" vertex="1" parent="1">
          <mxGeometry x="324" y="-660" width="180" height="180" as="geometry" />
        </mxCell>
        <mxCell id="UyIufJHTst8PUv4BLB6f-28" value="" style="shape=tableRow;horizontal=0;startSize=0;swimlaneHead=0;swimlaneBody=0;fillColor=none;collapsible=0;dropTarget=0;points=[[0,0.5],[1,0.5]];portConstraint=eastwest;top=0;left=0;right=0;bottom=1;" vertex="1" parent="UyIufJHTst8PUv4BLB6f-27">
          <mxGeometry y="30" width="180" height="30" as="geometry" />
        </mxCell>
        <mxCell id="UyIufJHTst8PUv4BLB6f-29" value="PK" style="shape=partialRectangle;connectable=0;fillColor=none;top=0;left=0;bottom=0;right=0;fontStyle=1;overflow=hidden;whiteSpace=wrap;html=1;" vertex="1" parent="UyIufJHTst8PUv4BLB6f-28">
          <mxGeometry width="30" height="30" as="geometry">
            <mxRectangle width="30" height="30" as="alternateBounds" />
          </mxGeometry>
        </mxCell>
        <mxCell id="UyIufJHTst8PUv4BLB6f-30" value="&lt;span style=&quot;font-weight: 400;&quot;&gt;&amp;nbsp; id&amp;nbsp; &amp;nbsp;&lt;/span&gt;&lt;i style=&quot;font-weight: 400;&quot;&gt;Unique Not null&amp;nbsp; &amp;nbsp;int&lt;/i&gt;" style="shape=partialRectangle;connectable=0;fillColor=none;top=0;left=0;bottom=0;right=0;align=left;spacingLeft=6;fontStyle=5;overflow=hidden;whiteSpace=wrap;html=1;" vertex="1" parent="UyIufJHTst8PUv4BLB6f-28">
          <mxGeometry x="30" width="150" height="30" as="geometry">
            <mxRectangle width="150" height="30" as="alternateBounds" />
          </mxGeometry>
        </mxCell>
        <mxCell id="UyIufJHTst8PUv4BLB6f-31" value="" style="shape=tableRow;horizontal=0;startSize=0;swimlaneHead=0;swimlaneBody=0;fillColor=none;collapsible=0;dropTarget=0;points=[[0,0.5],[1,0.5]];portConstraint=eastwest;top=0;left=0;right=0;bottom=0;" vertex="1" parent="UyIufJHTst8PUv4BLB6f-27">
          <mxGeometry y="60" width="180" height="30" as="geometry" />
        </mxCell>
        <mxCell id="UyIufJHTst8PUv4BLB6f-32" value="" style="shape=partialRectangle;connectable=0;fillColor=none;top=0;left=0;bottom=0;right=0;editable=1;overflow=hidden;whiteSpace=wrap;html=1;" vertex="1" parent="UyIufJHTst8PUv4BLB6f-31">
          <mxGeometry width="30" height="30" as="geometry">
            <mxRectangle width="30" height="30" as="alternateBounds" />
          </mxGeometry>
        </mxCell>
        <mxCell id="UyIufJHTst8PUv4BLB6f-33" value="nombre&amp;nbsp; &amp;nbsp; &amp;nbsp; &amp;nbsp; &amp;nbsp; &amp;nbsp; &amp;nbsp;varchar" style="shape=partialRectangle;connectable=0;fillColor=none;top=0;left=0;bottom=0;right=0;align=left;spacingLeft=6;overflow=hidden;whiteSpace=wrap;html=1;" vertex="1" parent="UyIufJHTst8PUv4BLB6f-31">
          <mxGeometry x="30" width="150" height="30" as="geometry">
            <mxRectangle width="150" height="30" as="alternateBounds" />
          </mxGeometry>
        </mxCell>
        <mxCell id="UyIufJHTst8PUv4BLB6f-34" value="" style="shape=tableRow;horizontal=0;startSize=0;swimlaneHead=0;swimlaneBody=0;fillColor=none;collapsible=0;dropTarget=0;points=[[0,0.5],[1,0.5]];portConstraint=eastwest;top=0;left=0;right=0;bottom=0;" vertex="1" parent="UyIufJHTst8PUv4BLB6f-27">
          <mxGeometry y="90" width="180" height="30" as="geometry" />
        </mxCell>
        <mxCell id="UyIufJHTst8PUv4BLB6f-35" value="" style="shape=partialRectangle;connectable=0;fillColor=none;top=0;left=0;bottom=0;right=0;editable=1;overflow=hidden;whiteSpace=wrap;html=1;" vertex="1" parent="UyIufJHTst8PUv4BLB6f-34">
          <mxGeometry width="30" height="30" as="geometry">
            <mxRectangle width="30" height="30" as="alternateBounds" />
          </mxGeometry>
        </mxCell>
        <mxCell id="UyIufJHTst8PUv4BLB6f-36" value="especialidad&amp;nbsp; &amp;nbsp; &amp;nbsp;varchar" style="shape=partialRectangle;connectable=0;fillColor=none;top=0;left=0;bottom=0;right=0;align=left;spacingLeft=6;overflow=hidden;whiteSpace=wrap;html=1;" vertex="1" parent="UyIufJHTst8PUv4BLB6f-34">
          <mxGeometry x="30" width="150" height="30" as="geometry">
            <mxRectangle width="150" height="30" as="alternateBounds" />
          </mxGeometry>
        </mxCell>
        <mxCell id="UyIufJHTst8PUv4BLB6f-37" value="" style="shape=tableRow;horizontal=0;startSize=0;swimlaneHead=0;swimlaneBody=0;fillColor=none;collapsible=0;dropTarget=0;points=[[0,0.5],[1,0.5]];portConstraint=eastwest;top=0;left=0;right=0;bottom=0;" vertex="1" parent="UyIufJHTst8PUv4BLB6f-27">
          <mxGeometry y="120" width="180" height="30" as="geometry" />
        </mxCell>
        <mxCell id="UyIufJHTst8PUv4BLB6f-38" value="" style="shape=partialRectangle;connectable=0;fillColor=none;top=0;left=0;bottom=0;right=0;editable=1;overflow=hidden;whiteSpace=wrap;html=1;" vertex="1" parent="UyIufJHTst8PUv4BLB6f-37">
          <mxGeometry width="30" height="30" as="geometry">
            <mxRectangle width="30" height="30" as="alternateBounds" />
          </mxGeometry>
        </mxCell>
        <mxCell id="UyIufJHTst8PUv4BLB6f-39" value="email&amp;nbsp; &amp;nbsp; &amp;nbsp;unique varchar" style="shape=partialRectangle;connectable=0;fillColor=none;top=0;left=0;bottom=0;right=0;align=left;spacingLeft=6;overflow=hidden;whiteSpace=wrap;html=1;" vertex="1" parent="UyIufJHTst8PUv4BLB6f-37">
          <mxGeometry x="30" width="150" height="30" as="geometry">
            <mxRectangle width="150" height="30" as="alternateBounds" />
          </mxGeometry>
        </mxCell>
        <mxCell id="UyIufJHTst8PUv4BLB6f-69" value="" style="shape=tableRow;horizontal=0;startSize=0;swimlaneHead=0;swimlaneBody=0;fillColor=none;collapsible=0;dropTarget=0;points=[[0,0.5],[1,0.5]];portConstraint=eastwest;top=0;left=0;right=0;bottom=0;" vertex="1" parent="UyIufJHTst8PUv4BLB6f-27">
          <mxGeometry y="150" width="180" height="30" as="geometry" />
        </mxCell>
        <mxCell id="UyIufJHTst8PUv4BLB6f-70" value="" style="shape=partialRectangle;connectable=0;fillColor=none;top=0;left=0;bottom=0;right=0;editable=1;overflow=hidden;" vertex="1" parent="UyIufJHTst8PUv4BLB6f-69">
          <mxGeometry width="30" height="30" as="geometry">
            <mxRectangle width="30" height="30" as="alternateBounds" />
          </mxGeometry>
        </mxCell>
        <mxCell id="UyIufJHTst8PUv4BLB6f-71" value="telefono             varchar" style="shape=partialRectangle;connectable=0;fillColor=none;top=0;left=0;bottom=0;right=0;align=left;spacingLeft=6;overflow=hidden;" vertex="1" parent="UyIufJHTst8PUv4BLB6f-69">
          <mxGeometry x="30" width="150" height="30" as="geometry">
            <mxRectangle width="150" height="30" as="alternateBounds" />
          </mxGeometry>
        </mxCell>
        <mxCell id="UyIufJHTst8PUv4BLB6f-40" value="disponibilidad" style="shape=table;startSize=30;container=1;collapsible=1;childLayout=tableLayout;fixedRows=1;rowLines=0;fontStyle=1;align=center;resizeLast=1;html=1;" vertex="1" parent="1">
          <mxGeometry x="70" y="-615" width="180" height="180" as="geometry" />
        </mxCell>
        <mxCell id="UyIufJHTst8PUv4BLB6f-41" value="" style="shape=tableRow;horizontal=0;startSize=0;swimlaneHead=0;swimlaneBody=0;fillColor=none;collapsible=0;dropTarget=0;points=[[0,0.5],[1,0.5]];portConstraint=eastwest;top=0;left=0;right=0;bottom=1;" vertex="1" parent="UyIufJHTst8PUv4BLB6f-40">
          <mxGeometry y="30" width="180" height="30" as="geometry" />
        </mxCell>
        <mxCell id="UyIufJHTst8PUv4BLB6f-42" value="PK" style="shape=partialRectangle;connectable=0;fillColor=none;top=0;left=0;bottom=0;right=0;fontStyle=1;overflow=hidden;whiteSpace=wrap;html=1;" vertex="1" parent="UyIufJHTst8PUv4BLB6f-41">
          <mxGeometry width="30" height="30" as="geometry">
            <mxRectangle width="30" height="30" as="alternateBounds" />
          </mxGeometry>
        </mxCell>
        <mxCell id="UyIufJHTst8PUv4BLB6f-43" value="&lt;span style=&quot;font-weight: 400;&quot;&gt;&amp;nbsp; id&amp;nbsp; &amp;nbsp;&lt;/span&gt;&lt;i style=&quot;font-weight: 400;&quot;&gt;Unique Not null&amp;nbsp; &amp;nbsp;int&lt;/i&gt;" style="shape=partialRectangle;connectable=0;fillColor=none;top=0;left=0;bottom=0;right=0;align=left;spacingLeft=6;fontStyle=5;overflow=hidden;whiteSpace=wrap;html=1;" vertex="1" parent="UyIufJHTst8PUv4BLB6f-41">
          <mxGeometry x="30" width="150" height="30" as="geometry">
            <mxRectangle width="150" height="30" as="alternateBounds" />
          </mxGeometry>
        </mxCell>
        <mxCell id="UyIufJHTst8PUv4BLB6f-44" value="" style="shape=tableRow;horizontal=0;startSize=0;swimlaneHead=0;swimlaneBody=0;fillColor=none;collapsible=0;dropTarget=0;points=[[0,0.5],[1,0.5]];portConstraint=eastwest;top=0;left=0;right=0;bottom=0;" vertex="1" parent="UyIufJHTst8PUv4BLB6f-40">
          <mxGeometry y="60" width="180" height="30" as="geometry" />
        </mxCell>
        <mxCell id="UyIufJHTst8PUv4BLB6f-45" value="" style="shape=partialRectangle;connectable=0;fillColor=none;top=0;left=0;bottom=0;right=0;editable=1;overflow=hidden;whiteSpace=wrap;html=1;" vertex="1" parent="UyIufJHTst8PUv4BLB6f-44">
          <mxGeometry width="30" height="30" as="geometry">
            <mxRectangle width="30" height="30" as="alternateBounds" />
          </mxGeometry>
        </mxCell>
        <mxCell id="UyIufJHTst8PUv4BLB6f-46" value="" style="shape=partialRectangle;connectable=0;fillColor=none;top=0;left=0;bottom=0;right=0;align=left;spacingLeft=6;overflow=hidden;whiteSpace=wrap;html=1;" vertex="1" parent="UyIufJHTst8PUv4BLB6f-44">
          <mxGeometry x="30" width="150" height="30" as="geometry">
            <mxRectangle width="150" height="30" as="alternateBounds" />
          </mxGeometry>
        </mxCell>
        <mxCell id="UyIufJHTst8PUv4BLB6f-47" value="" style="shape=tableRow;horizontal=0;startSize=0;swimlaneHead=0;swimlaneBody=0;fillColor=none;collapsible=0;dropTarget=0;points=[[0,0.5],[1,0.5]];portConstraint=eastwest;top=0;left=0;right=0;bottom=0;" vertex="1" parent="UyIufJHTst8PUv4BLB6f-40">
          <mxGeometry y="90" width="180" height="30" as="geometry" />
        </mxCell>
        <mxCell id="UyIufJHTst8PUv4BLB6f-48" value="" style="shape=partialRectangle;connectable=0;fillColor=none;top=0;left=0;bottom=0;right=0;editable=1;overflow=hidden;whiteSpace=wrap;html=1;" vertex="1" parent="UyIufJHTst8PUv4BLB6f-47">
          <mxGeometry width="30" height="30" as="geometry">
            <mxRectangle width="30" height="30" as="alternateBounds" />
          </mxGeometry>
        </mxCell>
        <mxCell id="UyIufJHTst8PUv4BLB6f-49" value="fecha&amp;nbsp; &amp;nbsp; &amp;nbsp; &amp;nbsp; &amp;nbsp; &amp;nbsp; &amp;nbsp;timestamp&amp;nbsp;" style="shape=partialRectangle;connectable=0;fillColor=none;top=0;left=0;bottom=0;right=0;align=left;spacingLeft=6;overflow=hidden;whiteSpace=wrap;html=1;" vertex="1" parent="UyIufJHTst8PUv4BLB6f-47">
          <mxGeometry x="30" width="150" height="30" as="geometry">
            <mxRectangle width="150" height="30" as="alternateBounds" />
          </mxGeometry>
        </mxCell>
        <mxCell id="UyIufJHTst8PUv4BLB6f-50" value="" style="shape=tableRow;horizontal=0;startSize=0;swimlaneHead=0;swimlaneBody=0;fillColor=none;collapsible=0;dropTarget=0;points=[[0,0.5],[1,0.5]];portConstraint=eastwest;top=0;left=0;right=0;bottom=0;" vertex="1" parent="UyIufJHTst8PUv4BLB6f-40">
          <mxGeometry y="120" width="180" height="30" as="geometry" />
        </mxCell>
        <mxCell id="UyIufJHTst8PUv4BLB6f-51" value="" style="shape=partialRectangle;connectable=0;fillColor=none;top=0;left=0;bottom=0;right=0;editable=1;overflow=hidden;whiteSpace=wrap;html=1;" vertex="1" parent="UyIufJHTst8PUv4BLB6f-50">
          <mxGeometry width="30" height="30" as="geometry">
            <mxRectangle width="30" height="30" as="alternateBounds" />
          </mxGeometry>
        </mxCell>
        <mxCell id="UyIufJHTst8PUv4BLB6f-52" value="hora_inicio&amp;nbsp; &amp;nbsp; &amp;nbsp; &amp;nbsp; &amp;nbsp; &amp;nbsp; &amp;nbsp;time" style="shape=partialRectangle;connectable=0;fillColor=none;top=0;left=0;bottom=0;right=0;align=left;spacingLeft=6;overflow=hidden;whiteSpace=wrap;html=1;" vertex="1" parent="UyIufJHTst8PUv4BLB6f-50">
          <mxGeometry x="30" width="150" height="30" as="geometry">
            <mxRectangle width="150" height="30" as="alternateBounds" />
          </mxGeometry>
        </mxCell>
        <mxCell id="UyIufJHTst8PUv4BLB6f-122" value="" style="shape=tableRow;horizontal=0;startSize=0;swimlaneHead=0;swimlaneBody=0;fillColor=none;collapsible=0;dropTarget=0;points=[[0,0.5],[1,0.5]];portConstraint=eastwest;top=0;left=0;right=0;bottom=0;" vertex="1" parent="UyIufJHTst8PUv4BLB6f-40">
          <mxGeometry y="150" width="180" height="30" as="geometry" />
        </mxCell>
        <mxCell id="UyIufJHTst8PUv4BLB6f-123" value="" style="shape=partialRectangle;connectable=0;fillColor=none;top=0;left=0;bottom=0;right=0;editable=1;overflow=hidden;whiteSpace=wrap;html=1;" vertex="1" parent="UyIufJHTst8PUv4BLB6f-122">
          <mxGeometry width="30" height="30" as="geometry">
            <mxRectangle width="30" height="30" as="alternateBounds" />
          </mxGeometry>
        </mxCell>
        <mxCell id="UyIufJHTst8PUv4BLB6f-124" value="hora_fin&amp;nbsp; &amp;nbsp; &amp;nbsp; &amp;nbsp; &amp;nbsp; &amp;nbsp; &amp;nbsp; &amp;nbsp; &amp;nbsp;time" style="shape=partialRectangle;connectable=0;fillColor=none;top=0;left=0;bottom=0;right=0;align=left;spacingLeft=6;overflow=hidden;whiteSpace=wrap;html=1;" vertex="1" parent="UyIufJHTst8PUv4BLB6f-122">
          <mxGeometry x="30" width="150" height="30" as="geometry">
            <mxRectangle width="150" height="30" as="alternateBounds" />
          </mxGeometry>
        </mxCell>
        <mxCell id="UyIufJHTst8PUv4BLB6f-53" value="cita_estilista" style="shape=table;startSize=30;container=1;collapsible=1;childLayout=tableLayout;fixedRows=1;rowLines=0;fontStyle=1;align=center;resizeLast=1;html=1;" vertex="1" parent="1">
          <mxGeometry x="70" y="-810" width="180" height="120" as="geometry" />
        </mxCell>
        <mxCell id="UyIufJHTst8PUv4BLB6f-54" value="" style="shape=tableRow;horizontal=0;startSize=0;swimlaneHead=0;swimlaneBody=0;fillColor=none;collapsible=0;dropTarget=0;points=[[0,0.5],[1,0.5]];portConstraint=eastwest;top=0;left=0;right=0;bottom=1;" vertex="1" parent="UyIufJHTst8PUv4BLB6f-53">
          <mxGeometry y="30" width="180" height="30" as="geometry" />
        </mxCell>
        <mxCell id="UyIufJHTst8PUv4BLB6f-55" value="PK" style="shape=partialRectangle;connectable=0;fillColor=none;top=0;left=0;bottom=0;right=0;fontStyle=1;overflow=hidden;whiteSpace=wrap;html=1;" vertex="1" parent="UyIufJHTst8PUv4BLB6f-54">
          <mxGeometry width="30" height="30" as="geometry">
            <mxRectangle width="30" height="30" as="alternateBounds" />
          </mxGeometry>
        </mxCell>
        <mxCell id="UyIufJHTst8PUv4BLB6f-56" value="&lt;span style=&quot;font-weight: 400;&quot;&gt;&amp;nbsp; id&amp;nbsp; &amp;nbsp;&lt;/span&gt;&lt;i style=&quot;font-weight: 400;&quot;&gt;Unique Not null&amp;nbsp; &amp;nbsp;int&lt;/i&gt;" style="shape=partialRectangle;connectable=0;fillColor=none;top=0;left=0;bottom=0;right=0;align=left;spacingLeft=6;fontStyle=5;overflow=hidden;whiteSpace=wrap;html=1;" vertex="1" parent="UyIufJHTst8PUv4BLB6f-54">
          <mxGeometry x="30" width="150" height="30" as="geometry">
            <mxRectangle width="150" height="30" as="alternateBounds" />
          </mxGeometry>
        </mxCell>
        <mxCell id="UyIufJHTst8PUv4BLB6f-100" value="" style="shape=tableRow;horizontal=0;startSize=0;swimlaneHead=0;swimlaneBody=0;fillColor=none;collapsible=0;dropTarget=0;points=[[0,0.5],[1,0.5]];portConstraint=eastwest;top=0;left=0;right=0;bottom=0;" vertex="1" parent="UyIufJHTst8PUv4BLB6f-53">
          <mxGeometry y="60" width="180" height="30" as="geometry" />
        </mxCell>
        <mxCell id="UyIufJHTst8PUv4BLB6f-101" value="FK" style="shape=partialRectangle;connectable=0;fillColor=none;top=0;left=0;bottom=0;right=0;fontStyle=0;overflow=hidden;whiteSpace=wrap;html=1;" vertex="1" parent="UyIufJHTst8PUv4BLB6f-100">
          <mxGeometry width="30" height="30" as="geometry">
            <mxRectangle width="30" height="30" as="alternateBounds" />
          </mxGeometry>
        </mxCell>
        <mxCell id="UyIufJHTst8PUv4BLB6f-102" value="cita_id" style="shape=partialRectangle;connectable=0;fillColor=none;top=0;left=0;bottom=0;right=0;align=left;spacingLeft=6;fontStyle=0;overflow=hidden;whiteSpace=wrap;html=1;" vertex="1" parent="UyIufJHTst8PUv4BLB6f-100">
          <mxGeometry x="30" width="150" height="30" as="geometry">
            <mxRectangle width="150" height="30" as="alternateBounds" />
          </mxGeometry>
        </mxCell>
        <mxCell id="UyIufJHTst8PUv4BLB6f-103" value="" style="shape=tableRow;horizontal=0;startSize=0;swimlaneHead=0;swimlaneBody=0;fillColor=none;collapsible=0;dropTarget=0;points=[[0,0.5],[1,0.5]];portConstraint=eastwest;top=0;left=0;right=0;bottom=0;" vertex="1" parent="UyIufJHTst8PUv4BLB6f-53">
          <mxGeometry y="90" width="180" height="30" as="geometry" />
        </mxCell>
        <mxCell id="UyIufJHTst8PUv4BLB6f-104" value="FK" style="shape=partialRectangle;connectable=0;fillColor=none;top=0;left=0;bottom=0;right=0;fontStyle=0;overflow=hidden;whiteSpace=wrap;html=1;" vertex="1" parent="UyIufJHTst8PUv4BLB6f-103">
          <mxGeometry width="30" height="30" as="geometry">
            <mxRectangle width="30" height="30" as="alternateBounds" />
          </mxGeometry>
        </mxCell>
        <mxCell id="UyIufJHTst8PUv4BLB6f-105" value="estilista_id" style="shape=partialRectangle;connectable=0;fillColor=none;top=0;left=0;bottom=0;right=0;align=left;spacingLeft=6;fontStyle=0;overflow=hidden;whiteSpace=wrap;html=1;" vertex="1" parent="UyIufJHTst8PUv4BLB6f-103">
          <mxGeometry x="30" width="150" height="30" as="geometry">
            <mxRectangle width="150" height="30" as="alternateBounds" />
          </mxGeometry>
        </mxCell>
        <mxCell id="UyIufJHTst8PUv4BLB6f-106" value="" style="shape=tableRow;horizontal=0;startSize=0;swimlaneHead=0;swimlaneBody=0;fillColor=none;collapsible=0;dropTarget=0;points=[[0,0.5],[1,0.5]];portConstraint=eastwest;top=0;left=0;right=0;bottom=0;" vertex="1" parent="1">
          <mxGeometry x="70" y="-550" width="180" height="30" as="geometry" />
        </mxCell>
        <mxCell id="UyIufJHTst8PUv4BLB6f-107" value="FK" style="shape=partialRectangle;connectable=0;fillColor=none;top=0;left=0;bottom=0;right=0;fontStyle=0;overflow=hidden;whiteSpace=wrap;html=1;" vertex="1" parent="UyIufJHTst8PUv4BLB6f-106">
          <mxGeometry width="30" height="30" as="geometry">
            <mxRectangle width="30" height="30" as="alternateBounds" />
          </mxGeometry>
        </mxCell>
        <mxCell id="UyIufJHTst8PUv4BLB6f-108" value="estilista_id" style="shape=partialRectangle;connectable=0;fillColor=none;top=0;left=0;bottom=0;right=0;align=left;spacingLeft=6;fontStyle=0;overflow=hidden;whiteSpace=wrap;html=1;" vertex="1" parent="UyIufJHTst8PUv4BLB6f-106">
          <mxGeometry x="30" width="150" height="30" as="geometry">
            <mxRectangle width="150" height="30" as="alternateBounds" />
          </mxGeometry>
        </mxCell>
        <mxCell id="UyIufJHTst8PUv4BLB6f-135" value="" style="edgeStyle=entityRelationEdgeStyle;fontSize=12;html=1;endArrow=ERoneToMany;rounded=0;startSize=8;endSize=8;curved=1;exitX=0;exitY=0.5;exitDx=0;exitDy=0;entryX=1;entryY=0.5;entryDx=0;entryDy=0;" edge="1" parent="1" source="mz3XF2FVlqkhDc6d8bLx-2" target="UyIufJHTst8PUv4BLB6f-125">
          <mxGeometry width="100" height="100" relative="1" as="geometry">
            <mxPoint x="390" y="-960" as="sourcePoint" />
            <mxPoint x="490" y="-1060" as="targetPoint" />
            <Array as="points">
              <mxPoint x="540" y="-910" />
              <mxPoint x="504" y="-920" />
            </Array>
          </mxGeometry>
        </mxCell>
        <mxCell id="UyIufJHTst8PUv4BLB6f-136" value="" style="edgeStyle=entityRelationEdgeStyle;fontSize=12;html=1;endArrow=ERmandOne;startArrow=ERmandOne;rounded=0;startSize=8;endSize=8;curved=1;entryX=0;entryY=0.5;entryDx=0;entryDy=0;exitX=1;exitY=0.5;exitDx=0;exitDy=0;" edge="1" parent="1" source="UyIufJHTst8PUv4BLB6f-128" target="UyIufJHTst8PUv4BLB6f-2">
          <mxGeometry width="100" height="100" relative="1" as="geometry">
            <mxPoint x="390" y="-910" as="sourcePoint" />
            <mxPoint x="490" y="-1010" as="targetPoint" />
          </mxGeometry>
        </mxCell>
        <mxCell id="UyIufJHTst8PUv4BLB6f-138" value="" style="edgeStyle=entityRelationEdgeStyle;fontSize=12;html=1;endArrow=ERmany;startArrow=ERmany;rounded=0;startSize=8;endSize=8;curved=1;entryX=0;entryY=0.5;entryDx=0;entryDy=0;exitX=1;exitY=0.5;exitDx=0;exitDy=0;" edge="1" parent="1" source="UyIufJHTst8PUv4BLB6f-100" target="UyIufJHTst8PUv4BLB6f-15">
          <mxGeometry width="100" height="100" relative="1" as="geometry">
            <mxPoint x="210" y="-610" as="sourcePoint" />
            <mxPoint x="310" y="-710" as="targetPoint" />
          </mxGeometry>
        </mxCell>
        <mxCell id="UyIufJHTst8PUv4BLB6f-139" value="" style="edgeStyle=entityRelationEdgeStyle;fontSize=12;html=1;endArrow=ERmany;startArrow=ERmany;rounded=0;startSize=8;endSize=8;curved=1;exitX=1;exitY=0.5;exitDx=0;exitDy=0;entryX=0;entryY=0.5;entryDx=0;entryDy=0;" edge="1" parent="1" source="UyIufJHTst8PUv4BLB6f-103" target="UyIufJHTst8PUv4BLB6f-28">
          <mxGeometry width="100" height="100" relative="1" as="geometry">
            <mxPoint x="210" y="-610" as="sourcePoint" />
            <mxPoint x="310" y="-710" as="targetPoint" />
          </mxGeometry>
        </mxCell>
        <mxCell id="1D6t-YIedM1mOBL0S7JL-1" value="" style="edgeStyle=entityRelationEdgeStyle;fontSize=12;html=1;endArrow=ERoneToMany;rounded=0;exitX=0;exitY=0.5;exitDx=0;exitDy=0;entryX=1;entryY=0.5;entryDx=0;entryDy=0;" edge="1" parent="1" source="UyIufJHTst8PUv4BLB6f-28" target="UyIufJHTst8PUv4BLB6f-106">
          <mxGeometry width="100" height="100" relative="1" as="geometry">
            <mxPoint x="10" y="-570" as="sourcePoint" />
            <mxPoint x="110" y="-670" as="targetPoint" />
          </mxGeometry>
        </mxCell>
      </root>
    </mxGraphModel>
  </diagram>
  <diagram id="GehfhQEQP9sTLfGc5Xwg" name="ER">
    <mxGraphModel grid="1" page="1" gridSize="10" guides="1" tooltips="1" connect="1" arrows="1" fold="1" pageScale="1" pageWidth="827" pageHeight="1169" math="0" shadow="0">
      <root>
        <mxCell id="0" />
        <mxCell id="1" parent="0" />
        <mxCell id="s-hTcnYfexZXfQBbIxqW-1" value="cita" style="whiteSpace=wrap;html=1;align=center;" vertex="1" parent="1">
          <mxGeometry x="470" y="220" width="100" height="40" as="geometry" />
        </mxCell>
        <mxCell id="s-hTcnYfexZXfQBbIxqW-2" value="servicio" style="whiteSpace=wrap;html=1;align=center;" vertex="1" parent="1">
          <mxGeometry x="470" y="410" width="100" height="40" as="geometry" />
        </mxCell>
        <mxCell id="s-hTcnYfexZXfQBbIxqW-3" value="Agendar" style="shape=rhombus;perimeter=rhombusPerimeter;whiteSpace=wrap;html=1;align=center;" vertex="1" parent="1">
          <mxGeometry x="330" y="210" width="120" height="60" as="geometry" />
        </mxCell>
        <mxCell id="s-hTcnYfexZXfQBbIxqW-4" value="cliente" style="whiteSpace=wrap;html=1;align=center;" vertex="1" parent="1">
          <mxGeometry x="210" y="220" width="100" height="40" as="geometry" />
        </mxCell>
        <mxCell id="s-hTcnYfexZXfQBbIxqW-5" value="" style="endArrow=none;html=1;rounded=0;entryX=0;entryY=0.5;entryDx=0;entryDy=0;exitX=1;exitY=0.5;exitDx=0;exitDy=0;" edge="1" parent="1" source="s-hTcnYfexZXfQBbIxqW-4" target="s-hTcnYfexZXfQBbIxqW-3">
          <mxGeometry relative="1" as="geometry">
            <mxPoint x="320" y="320" as="sourcePoint" />
            <mxPoint x="480" y="320" as="targetPoint" />
          </mxGeometry>
        </mxCell>
        <mxCell id="s-hTcnYfexZXfQBbIxqW-6" value="1" style="resizable=0;html=1;whiteSpace=wrap;align=left;verticalAlign=bottom;" connectable="0" vertex="1" parent="s-hTcnYfexZXfQBbIxqW-5">
          <mxGeometry x="-1" relative="1" as="geometry" />
        </mxCell>
        <mxCell id="s-hTcnYfexZXfQBbIxqW-7" value="" style="resizable=0;html=1;whiteSpace=wrap;align=right;verticalAlign=bottom;" connectable="0" vertex="1" parent="s-hTcnYfexZXfQBbIxqW-5">
          <mxGeometry x="1" relative="1" as="geometry" />
        </mxCell>
        <mxCell id="s-hTcnYfexZXfQBbIxqW-12" value="" style="endArrow=none;html=1;rounded=0;entryX=0;entryY=0.5;entryDx=0;entryDy=0;exitX=1;exitY=0.5;exitDx=0;exitDy=0;" edge="1" parent="1" source="s-hTcnYfexZXfQBbIxqW-3" target="s-hTcnYfexZXfQBbIxqW-1">
          <mxGeometry relative="1" as="geometry">
            <mxPoint x="414" y="310" as="sourcePoint" />
            <mxPoint x="454" y="310" as="targetPoint" />
          </mxGeometry>
        </mxCell>
        <mxCell id="s-hTcnYfexZXfQBbIxqW-13" value="" style="resizable=0;html=1;whiteSpace=wrap;align=left;verticalAlign=bottom;" connectable="0" vertex="1" parent="s-hTcnYfexZXfQBbIxqW-12">
          <mxGeometry x="-1" relative="1" as="geometry" />
        </mxCell>
        <mxCell id="s-hTcnYfexZXfQBbIxqW-14" value="N" style="resizable=0;html=1;whiteSpace=wrap;align=right;verticalAlign=bottom;" connectable="0" vertex="1" parent="s-hTcnYfexZXfQBbIxqW-12">
          <mxGeometry x="1" relative="1" as="geometry" />
        </mxCell>
        <mxCell id="s-hTcnYfexZXfQBbIxqW-15" value="Atendido" style="shape=rhombus;perimeter=rhombusPerimeter;whiteSpace=wrap;html=1;align=center;rotation=0;" vertex="1" parent="1">
          <mxGeometry x="460" y="300" width="120" height="60" as="geometry" />
        </mxCell>
        <mxCell id="s-hTcnYfexZXfQBbIxqW-16" value="" style="endArrow=none;html=1;rounded=0;entryX=0.5;entryY=0;entryDx=0;entryDy=0;exitX=0.5;exitY=1;exitDx=0;exitDy=0;" edge="1" parent="1" source="s-hTcnYfexZXfQBbIxqW-1" target="s-hTcnYfexZXfQBbIxqW-15">
          <mxGeometry relative="1" as="geometry">
            <mxPoint x="319" y="370" as="sourcePoint" />
            <mxPoint x="529" y="450" as="targetPoint" />
          </mxGeometry>
        </mxCell>
        <mxCell id="s-hTcnYfexZXfQBbIxqW-17" value="1" style="resizable=0;html=1;whiteSpace=wrap;align=left;verticalAlign=bottom;" connectable="0" vertex="1" parent="s-hTcnYfexZXfQBbIxqW-16">
          <mxGeometry x="-1" relative="1" as="geometry">
            <mxPoint y="20" as="offset" />
          </mxGeometry>
        </mxCell>
        <mxCell id="s-hTcnYfexZXfQBbIxqW-18" value="" style="resizable=0;html=1;whiteSpace=wrap;align=right;verticalAlign=bottom;" connectable="0" vertex="1" parent="s-hTcnYfexZXfQBbIxqW-16">
          <mxGeometry x="1" relative="1" as="geometry" />
        </mxCell>
        <mxCell id="s-hTcnYfexZXfQBbIxqW-19" value="" style="endArrow=none;html=1;rounded=0;entryX=0.5;entryY=0;entryDx=0;entryDy=0;exitX=0.5;exitY=1;exitDx=0;exitDy=0;" edge="1" parent="1" source="s-hTcnYfexZXfQBbIxqW-15" target="s-hTcnYfexZXfQBbIxqW-2">
          <mxGeometry relative="1" as="geometry">
            <mxPoint x="463" y="440" as="sourcePoint" />
            <mxPoint x="509" y="370" as="targetPoint" />
          </mxGeometry>
        </mxCell>
        <mxCell id="s-hTcnYfexZXfQBbIxqW-20" value="" style="resizable=0;html=1;whiteSpace=wrap;align=left;verticalAlign=bottom;" connectable="0" vertex="1" parent="s-hTcnYfexZXfQBbIxqW-19">
          <mxGeometry x="-1" relative="1" as="geometry" />
        </mxCell>
        <mxCell id="s-hTcnYfexZXfQBbIxqW-21" value="1" style="resizable=0;html=1;whiteSpace=wrap;align=right;verticalAlign=bottom;" connectable="0" vertex="1" parent="s-hTcnYfexZXfQBbIxqW-19">
          <mxGeometry x="1" relative="1" as="geometry" />
        </mxCell>
        <mxCell id="s-hTcnYfexZXfQBbIxqW-23" value="estilista" style="whiteSpace=wrap;html=1;align=center;" vertex="1" parent="1">
          <mxGeometry x="740" y="220" width="100" height="40" as="geometry" />
        </mxCell>
        <mxCell id="s-hTcnYfexZXfQBbIxqW-24" value="disponibilidad" style="whiteSpace=wrap;html=1;align=center;" vertex="1" parent="1">
          <mxGeometry x="740" y="410" width="100" height="40" as="geometry" />
        </mxCell>
        <mxCell id="s-hTcnYfexZXfQBbIxqW-26" value="ocupa un periodo de tiempo" style="shape=rhombus;perimeter=rhombusPerimeter;whiteSpace=wrap;html=1;align=center;" vertex="1" parent="1">
          <mxGeometry x="715" y="285" width="150" height="90" as="geometry" />
        </mxCell>
        <mxCell id="s-hTcnYfexZXfQBbIxqW-27" value="" style="endArrow=none;html=1;rounded=0;entryX=0.5;entryY=0;entryDx=0;entryDy=0;exitX=0.5;exitY=1;exitDx=0;exitDy=0;" edge="1" parent="1" source="s-hTcnYfexZXfQBbIxqW-23" target="s-hTcnYfexZXfQBbIxqW-26">
          <mxGeometry relative="1" as="geometry">
            <mxPoint x="800" y="150" as="sourcePoint" />
            <mxPoint x="1010" y="230" as="targetPoint" />
          </mxGeometry>
        </mxCell>
        <mxCell id="s-hTcnYfexZXfQBbIxqW-28" value="1" style="resizable=0;html=1;whiteSpace=wrap;align=left;verticalAlign=bottom;" connectable="0" vertex="1" parent="s-hTcnYfexZXfQBbIxqW-27">
          <mxGeometry x="-1" relative="1" as="geometry">
            <mxPoint y="20" as="offset" />
          </mxGeometry>
        </mxCell>
        <mxCell id="s-hTcnYfexZXfQBbIxqW-29" value="" style="resizable=0;html=1;whiteSpace=wrap;align=right;verticalAlign=bottom;" connectable="0" vertex="1" parent="s-hTcnYfexZXfQBbIxqW-27">
          <mxGeometry x="1" relative="1" as="geometry" />
        </mxCell>
        <mxCell id="s-hTcnYfexZXfQBbIxqW-30" value="" style="endArrow=none;html=1;rounded=0;entryX=0.5;entryY=0;entryDx=0;entryDy=0;exitX=0.5;exitY=1;exitDx=0;exitDy=0;" edge="1" parent="1" source="s-hTcnYfexZXfQBbIxqW-26" target="s-hTcnYfexZXfQBbIxqW-24">
          <mxGeometry relative="1" as="geometry">
            <mxPoint x="944" y="220" as="sourcePoint" />
            <mxPoint x="990" y="150" as="targetPoint" />
          </mxGeometry>
        </mxCell>
        <mxCell id="s-hTcnYfexZXfQBbIxqW-31" value="" style="resizable=0;html=1;whiteSpace=wrap;align=left;verticalAlign=bottom;" connectable="0" vertex="1" parent="s-hTcnYfexZXfQBbIxqW-30">
          <mxGeometry x="-1" relative="1" as="geometry" />
        </mxCell>
        <mxCell id="s-hTcnYfexZXfQBbIxqW-32" value="N" style="resizable=0;html=1;whiteSpace=wrap;align=right;verticalAlign=bottom;" connectable="0" vertex="1" parent="s-hTcnYfexZXfQBbIxqW-30">
          <mxGeometry x="1" relative="1" as="geometry" />
        </mxCell>
        <mxCell id="wQYrKkVJkfCBeXikOnCp-1" value="Atender" style="shape=rhombus;perimeter=rhombusPerimeter;whiteSpace=wrap;html=1;align=center;rotation=0;" vertex="1" parent="1">
          <mxGeometry x="590" y="210" width="120" height="60" as="geometry" />
        </mxCell>
        <mxCell id="wQYrKkVJkfCBeXikOnCp-2" value="" style="endArrow=none;html=1;rounded=0;exitX=1;exitY=0.5;exitDx=0;exitDy=0;entryX=0;entryY=0.5;entryDx=0;entryDy=0;" edge="1" parent="1" source="s-hTcnYfexZXfQBbIxqW-1" target="wQYrKkVJkfCBeXikOnCp-1">
          <mxGeometry relative="1" as="geometry">
            <mxPoint x="610" y="150" as="sourcePoint" />
            <mxPoint x="660" y="160" as="targetPoint" />
            <Array as="points" />
          </mxGeometry>
        </mxCell>
        <mxCell id="wQYrKkVJkfCBeXikOnCp-3" value="N" style="resizable=0;html=1;whiteSpace=wrap;align=left;verticalAlign=bottom;" connectable="0" vertex="1" parent="wQYrKkVJkfCBeXikOnCp-2">
          <mxGeometry x="-1" relative="1" as="geometry" />
        </mxCell>
        <mxCell id="wQYrKkVJkfCBeXikOnCp-4" value="" style="resizable=0;html=1;whiteSpace=wrap;align=right;verticalAlign=bottom;" connectable="0" vertex="1" parent="wQYrKkVJkfCBeXikOnCp-2">
          <mxGeometry x="1" relative="1" as="geometry" />
        </mxCell>
        <mxCell id="wQYrKkVJkfCBeXikOnCp-5" value="" style="endArrow=none;html=1;rounded=0;entryX=0;entryY=0.5;entryDx=0;entryDy=0;exitX=1;exitY=0.5;exitDx=0;exitDy=0;" edge="1" parent="1" source="wQYrKkVJkfCBeXikOnCp-1" target="s-hTcnYfexZXfQBbIxqW-23">
          <mxGeometry relative="1" as="geometry">
            <mxPoint x="330" y="500" as="sourcePoint" />
            <mxPoint x="390" y="430" as="targetPoint" />
            <Array as="points" />
          </mxGeometry>
        </mxCell>
        <mxCell id="wQYrKkVJkfCBeXikOnCp-6" value="" style="resizable=0;html=1;whiteSpace=wrap;align=left;verticalAlign=bottom;" connectable="0" vertex="1" parent="wQYrKkVJkfCBeXikOnCp-5">
          <mxGeometry x="-1" relative="1" as="geometry" />
        </mxCell>
        <mxCell id="wQYrKkVJkfCBeXikOnCp-7" value="N" style="resizable=0;html=1;whiteSpace=wrap;align=right;verticalAlign=bottom;" connectable="0" vertex="1" parent="wQYrKkVJkfCBeXikOnCp-5">
          <mxGeometry x="1" relative="1" as="geometry" />
        </mxCell>
      </root>
    </mxGraphModel>
  </diagram>
</mxfile>
